<?xml version="1.0" encoding="UTF-8"?>
<svg width="24px" height="24px" viewBox="0 0 24 24" version="1.1" xmlns="http://www.w3.org/2000/svg">
    <circle cx="12" cy="12" r="12" fill="#FFFFFF"/>
    <path d="M12 0a12 12 0 1 0 0 24 12 12 0 0 0 0-24zm0 22a10 10 0 1 1 0-20 10 10 0 0 1 0 20z" fill="#F7931A" fill-opacity="0.2"/>
    <path d="M17 11.5c0-2.5-2-3-4.5-3V6h-2v2.5h-1.5V6h-2v2.5H5v2h1.5v7H5v2h2v2.5h2V20h1.5v2.5h2V20c3.5 0 4.5-1.5 4.5-3.5 0-1.5-0.5-2.5-1.5-3 0.5-0.5 1.5-1 1.5-2zm-4.5 5.5h-3v-3.5h3c1.5 0 2 0.5 2 1.75s-0.5 1.75-2 1.75zm-0.5-5h-2.5V9h2.5c1.5 0 2 0.5 2 1.5s-0.5 1.5-2 1.5z" fill="#F7931A"/>
</svg> 